<?xml version="1.0" encoding="UTF-8"?>
<svg id="Layer_1" xmlns="http://www.w3.org/2000/svg" version="1.1" viewBox="0 0 504 146.0656">
  <defs>
    <style>
      .st0 {
        fill: #262531;
      }

      .st1 {
        fill: #cad3b8;
      }
    </style>
  </defs>
  <polygon class="st1" points="325.59057 146.0656 0 146.0656 0 0 504 0 504 79.42341 325.59057 79.42341 325.59057 146.0656"/>
  <path class="st0" d="M52.23087,56.91228h-21.24837l-3.41739,9.7325h-14.78452L33.6574,12.78122h16.0476l20.87652,53.86356h-14.93296l-3.4177-9.7325ZM48.07038,45.09923l-5.79512-16.49322-.66842-2.82304-.66873,2.89741-5.79512,16.41885h12.92739ZM96.14033,24.66833c-8.32098,0-14.33891,6.01793-14.33891,15.00763,0,9.13814,5.94356,14.93296,14.19017,14.93296,6.53791,0,10.77277-2.82304,13.1502-8.69223l12.77865,4.97765c-4.16049,10.10405-13.22426,16.56759-26.00321,16.56759-15.89886,0-28.00879-11.4412-28.00879-27.78598,0-15.97354,12.03555-27.71191,28.30627-27.71191,12.4071,0,20.80245,6.24074,25.40856,16.12198l-12.85302,4.90328c-2.60023-5.57201-6.61198-8.32098-12.62991-8.32098ZM150.99369,24.66833c-8.32098,0-14.33891,6.01793-14.33891,15.00763,0,9.13814,5.94356,14.93296,14.19017,14.93296,6.53791,0,10.77277-2.82304,13.1502-8.69223l12.77865,4.97765c-4.16049,10.10405-13.22457,16.56759-26.00291,16.56759-15.89917,0-28.00909-11.4412-28.00909-27.78598,0-15.97354,12.03555-27.71191,28.30597-27.71191,12.4074,0,20.80245,6.24074,25.40886,16.12198l-12.85302,4.90328c-2.60023-5.57201-6.61228-8.32098-12.62991-8.32098ZM218.78138,54.53486v12.10992h-38.11284V12.78122h37.81596v12.03585h-24.22015v9.06377h22.73396v11.21839h-22.73396v9.43562h24.51702ZM261.60643,53.86613v12.77865h-36.47851V12.78122h13.74425v41.08492h22.73426ZM302.54321,54.53486v12.10992h-38.11284V12.78122h37.81596v12.03585h-24.22015v9.06377h22.73396v11.21839h-22.73396v9.43562h24.51702ZM328.94942,50.52281h-6.46354v16.12198h-13.59581V12.78122h21.09963c13.67018,0,21.91679,7.20664,21.91679,18.79658,0,7.50382-3.78894,13.22457-10.17842,16.34478l11.4415,18.72221h-15.8248l-8.39535-16.12198ZM322.48587,37.81853h7.65225c4.97796,0,7.94973-2.22899,7.94973-6.24074,0-4.08612-2.82334-6.24074-7.87536-6.24074h-7.72662v12.48147ZM393.44578,56.91228h-21.24807l-3.4177,9.7325h-14.78452l20.87652-53.86356h16.0476l20.87682,53.86356h-14.93326l-3.41739-9.7325ZM389.28529,45.09923l-5.79482-16.49322-.66873-2.82304-.66873,2.89741-5.79482,16.41885h12.92709ZM450.97343,25.41143h-17.01351v41.23335h-13.59581V25.41143h-16.93914v-12.63021h47.54846v12.63021ZM491.21942,54.53486v12.10992h-38.11284V12.78122h37.81596v12.03585h-24.22015v9.06377h22.73396v11.21839h-22.73396v9.43562h24.51702ZM14.86083,106.31816c0-15.97354,12.03555-27.71191,28.30627-27.71191,11.664,0,20.50497,5.3492,24.96294,14.85889l-13.07583,4.90359c-2.30336-4.60641-6.38948-7.13227-11.96148-7.13227-8.32098,0-14.33891,6.092-14.33891,15.0817,0,9.13814,5.86919,15.0817,14.19017,15.0817,6.53791,0,11.21839-3.26896,13.1502-8.7666h-14.33891v-10.6984h28.75219s.29688,1.85713.29688,4.3833c0,16.19604-11.29276,27.78598-27.93472,27.78598-15.89886,0-28.00879-11.4412-28.00879-27.78598ZM111.99476,120.50832v12.77865h-36.47851v-53.86356h13.74455v41.08492h22.73396ZM112.11448,106.31816c0-15.97354,12.18429-27.71191,28.67751-27.71191,16.71633,0,28.60345,11.36713,28.60345,27.71191,0,16.12167-12.03585,27.78598-28.60345,27.78598s-28.67751-11.4412-28.67751-27.78598ZM155.57651,106.31816c0-9.21251-5.86919-15.00763-14.78452-15.00763-8.7666,0-14.78452,6.01793-14.78452,15.00763,0,9.13814,5.94356,14.93296,14.78452,14.93296,8.7669,0,14.78452-6.01763,14.78452-14.93296ZM217.65918,117.75935c0,9.50969-7.57788,15.52762-19.53937,15.52762h-23.77423v-53.86356h22.21397c11.73868,0,19.16782,5.64638,19.16782,14.63609,0,5.3492-2.89741,9.95531-8.9894,11.51557v.29718c7.20634,1.11434,10.92121,5.72075,10.92121,11.88711ZM187.94139,90.93898v9.65843h8.39535c3.86331,0,6.01793-1.7087,6.01793-4.82922,0-3.12022-2.15462-4.82922-6.01793-4.82922h-8.39535ZM203.84026,116.64501c0-3.12052-2.45149-4.90359-6.90916-4.90359h-8.98971v9.88124h9.13814c4.3833,0,6.76072-1.78307,6.76072-4.97765ZM255.81041,123.55447h-21.24807l-3.4177,9.7325h-14.78452l20.87652-53.86356h16.0476l20.87682,53.86356h-14.93326l-3.41739-9.7325ZM251.64992,111.74143l-5.79482-16.49322-.66873-2.82304-.66873,2.89741-5.79482,16.41885h12.92709ZM312.81051,120.50832v12.77865h-36.47851v-53.86356h13.74425v41.08492h22.73426Z"/>
</svg>
